<?xml version="1.0" encoding="UTF-8"?><svg id="Layer_1" xmlns="http://www.w3.org/2000/svg" viewBox="0 0 4024 640"><path d="m236.72,420.19c-22.44-23.94-33.65-57.34-33.65-100.19s11.21-75.93,33.65-100c22.43-24.07,54.69-36.11,96.79-36.11,21.17,0,39,2.52,53.5,7.56,14.49,5.04,26.9,12.48,37.24,22.31l-5.29,55.2h-13.99c-4.54-13.1-7.69-29.87-9.45-50.29-12.86-10.08-28.49-15.12-46.88-15.12-26.72,0-47.58,10.4-62.57,31.19-15,20.79-22.5,49.22-22.5,85.26s6.74,65.1,20.23,85.64c13.48,20.55,33.33,30.81,59.55,30.81,10.83,0,22.56-1.89,35.16-5.67,12.6-3.78,24.45-9.7,35.54-17.77l8.32,15.88c-10.08,8.57-22.69,15.25-37.81,20.04s-31.64,7.18-49.53,7.18c-43.1,0-75.87-11.97-98.3-35.92Z" style="fill:#0e2c5c; stroke-width:0px;"/><path d="m488.9,445.9c10.83-3.53,20.79-6.17,29.87-7.94v-235.17c-10.59-2.01-20.67-4.79-30.25-8.32v-6.81h89.61l131.2,193.2v-178.46c-12.61-3.02-22.56-5.67-29.87-7.94v-6.81h83.56v6.81c-7.31,2.27-17.27,4.91-29.87,7.94v249.92h-30.25l-160.69-234.79v220.42c8.57,1.77,18.53,4.41,29.87,7.94v6.43h-83.18v-6.43Z" style="fill:#0e2c5c; stroke-width:0px;"/><path d="m1082.11,445.52v6.81h-117.58v-5.67c12.6-5.8,23.57-9.32,32.89-10.59l-60.87-93.01-72.97,95.28,24.95,6.81v7.18h-73.73v-7.56l15.5-4.92,7.18-1.89,87.34-113.05-79.4-121.37c-7.82-1.76-17.27-4.66-28.36-8.7v-7.18h117.58v7.94c-13.11,4.29-24.07,7.06-32.89,8.32l53.31,82.04,64.27-83.56-24.95-7.56v-7.18h74.11v6.43c-9.33,3.78-17.14,6.56-23.44,8.32l-78.26,101.71,86.2,133.09c12.86,3.28,22.56,6.05,29.11,8.32Z" style="fill:#0e2c5c; stroke-width:0px;"/><path d="m1304.42,420.19c-22.44-23.94-33.65-57.34-33.65-100.19s11.21-75.93,33.65-100c22.43-24.07,54.69-36.11,96.79-36.11,21.17,0,39,2.52,53.5,7.56,14.49,5.04,26.9,12.48,37.24,22.31l-5.29,55.2h-13.99c-4.54-13.1-7.69-29.87-9.45-50.29-12.86-10.08-28.49-15.12-46.88-15.12-26.72,0-47.58,10.4-62.57,31.19-15,20.79-22.5,49.22-22.5,85.26s6.74,65.1,20.23,85.64c13.48,20.55,33.33,30.81,59.55,30.81,10.83,0,22.56-1.89,35.16-5.67,12.6-3.78,24.45-9.7,35.54-17.77l8.32,15.88c-10.08,8.57-22.69,15.25-37.81,20.04s-31.64,7.18-49.53,7.18c-43.1,0-75.87-11.97-98.3-35.92Z" style="fill:#0e2c5c; stroke-width:0px;"/><path d="m1591.95,420c-22.81-24.07-34.22-57.4-34.22-100s11.4-75.93,34.22-100c22.81-24.07,55.39-36.11,97.74-36.11s74.92,12.04,97.73,36.11c22.81,24.07,34.22,57.41,34.22,100s-11.41,75.94-34.22,100c-22.81,24.07-55.39,36.11-97.73,36.11s-74.93-12.03-97.74-36.11Zm151.42-15.31c12.1-21.17,18.15-49.4,18.15-84.69s-6.05-63.52-18.15-84.69c-12.1-21.17-30-31.76-53.69-31.76s-41.91,10.59-53.88,31.76c-11.97,21.17-17.96,49.41-17.96,84.69s5.98,63.84,17.96,84.88c11.97,21.05,29.93,31.57,53.88,31.57s41.59-10.59,53.69-31.76Z" style="fill:#0e2c5c; stroke-width:0px;"/><path d="m1884.02,445.9c10.83-3.53,20.79-6.17,29.87-7.94v-235.17c-10.59-2.01-20.67-4.79-30.25-8.32v-6.81h89.61l131.2,193.2v-178.46c-12.61-3.02-22.56-5.67-29.87-7.94v-6.81h83.56v6.81c-7.31,2.27-17.27,4.91-29.87,7.94v249.92h-30.25l-160.69-234.79v220.42c8.57,1.77,18.53,4.41,29.87,7.94v6.43h-83.18v-6.43Z" style="fill:#0e2c5c; stroke-width:0px;"/><path d="m2255.68,420.19c-22.44-23.94-33.65-57.34-33.65-100.19s11.21-75.93,33.65-100c22.43-24.07,54.69-36.11,96.79-36.11,21.17,0,39,2.52,53.5,7.56,14.49,5.04,26.9,12.48,37.24,22.31l-5.29,55.2h-13.99c-4.54-13.1-7.69-29.87-9.45-50.29-12.86-10.08-28.49-15.12-46.88-15.12-26.72,0-47.58,10.4-62.57,31.19-15,20.79-22.5,49.22-22.5,85.26s6.74,65.1,20.23,85.64c13.48,20.55,33.33,30.81,59.55,30.81,10.83,0,22.56-1.89,35.16-5.67,12.6-3.78,24.45-9.7,35.54-17.77l8.32,15.88c-10.08,8.57-22.69,15.25-37.81,20.04-15.12,4.79-31.64,7.18-49.53,7.18-43.1,0-75.87-11.97-98.3-35.92Z" style="fill:#0e2c5c; stroke-width:0px;"/><path d="m2507.86,444.77c8.06-2.27,18.15-4.79,30.25-7.56v-234.41c-5.55-1-15.63-3.65-30.25-7.94v-7.18h120.23v7.56c-3.02,1.01-6.87,2.08-11.53,3.21-4.67,1.13-8,1.96-10.02,2.46l-9.07,2.27v234.41c5.79,1.01,16,3.66,30.62,7.94v6.81h-120.23v-7.56Z" style="fill:#0e2c5c; stroke-width:0px;"/><path d="m2912.4,386.17l-7.18,66.17h-216.27v-6.81c10.59-3.78,21.42-6.55,32.52-8.32v-234.41c-10.34-1.76-21.17-4.54-32.52-8.32v-6.81h216.64v66.92h-12.86c-2.78-4.54-5.86-12.22-9.26-23.06-3.4-10.83-5.23-19.15-5.48-24.95h-97.17v103.97h65.41c2.27-14.37,4.91-25.2,7.94-32.52h9.45v83.94h-9.45c-2.02-5.29-3.72-11.09-5.1-17.39-1.39-6.3-2.33-11.34-2.84-15.12h-65.41v104.35h99.44c.5-6.55,2.96-15.06,7.37-25.52,4.41-10.46,8.38-17.83,11.91-22.12h12.86Z" style="fill:#0e2c5c; stroke-width:0px;"/><path d="m3230.75,445.52v6.81h-76.75l-57.47-113.05h-30.25v98.3c5.54,1.01,15.63,3.66,30.25,7.94v6.81h-120.23v-7.56c5.79-1.76,11.59-3.34,17.39-4.73,5.79-1.38,10.21-2.33,13.23-2.84v-234.41c-8.07-1.51-18.02-4.16-29.87-7.94v-7.18h143.67c31.51,0,53.69,6.49,66.54,19.47,12.85,12.98,19.28,31.19,19.28,54.63,0,19.66-5.23,35.98-15.69,48.96-10.46,12.98-25.14,21.62-44.05,25.9l54.82,100.95c13.1,2.78,22.81,5.42,29.11,7.94Zm-164.47-124.77h34.41c31.51,0,47.26-19.91,47.26-59.74,0-18.15-3.85-31.76-11.53-40.83-7.69-9.07-19.6-13.61-35.73-13.61h-34.41v114.18Z" style="fill:#0e2c5c; stroke-width:0px;"/><path d="m3323,420.19c-22.94-23.94-34.41-57.34-34.41-100.19,0-27.98,5.29-52.18,15.88-72.59,10.59-20.42,26.02-36.11,46.32-47.07,20.29-10.96,44.55-16.45,72.78-16.45,21.68,0,41.21,2.65,58.6,7.94,17.39,5.29,31,12.61,40.83,21.93l-5.29,55.2h-13.99c-4.54-14.62-7.69-31.38-9.45-50.29-6.3-5.04-14.75-8.82-25.33-11.34-10.59-2.52-20.79-3.78-30.62-3.78-17.9,0-33.59,4.73-47.07,14.18-13.49,9.45-23.88,22.94-31.19,40.46-7.31,17.52-10.96,38.13-10.96,61.82,0,36.3,6.99,64.78,20.98,85.45,13.99,20.67,34.09,31,60.3,31,4.28,0,9.39-.44,15.31-1.32,5.92-.88,11.02-2.08,15.31-3.59v-93.39c-14.88-3.53-24.83-6.05-29.87-7.56v-7.18h113.43v5.29c-3.02,1.77-7.18,3.72-12.48,5.86-5.29,2.14-9.83,3.59-13.61,4.35v95.28c-9.33,6.81-23,12.16-41.02,16.07-18.02,3.91-36.36,5.86-55.01,5.86-43.36,0-76.5-11.97-99.44-35.92Z" style="fill:#0e2c5c; stroke-width:0px;"/><path d="m3820.93,386.17l-7.18,66.17h-216.27v-6.81c10.59-3.78,21.42-6.55,32.52-8.32v-234.41c-10.34-1.76-21.17-4.54-32.52-8.32v-6.81h216.64v66.92h-12.86c-2.78-4.54-5.86-12.22-9.26-23.06-3.4-10.83-5.23-19.15-5.48-24.95h-97.17v103.97h65.41c2.27-14.37,4.91-25.2,7.94-32.52h9.45v83.94h-9.45c-2.02-5.29-3.72-11.09-5.1-17.39-1.39-6.3-2.33-11.34-2.84-15.12h-65.41v104.35h99.44c.5-6.55,2.96-15.06,7.37-25.52,4.41-10.46,8.38-17.83,11.91-22.12h12.86Z" style="fill:#0e2c5c; stroke-width:0px;"/></svg>