<?xml version="1.0" encoding="UTF-8"?><svg id="Layer_1" xmlns="http://www.w3.org/2000/svg" viewBox="0 0 640 640"><path d="m199.52,376.63c-13.13-14.01-19.69-33.55-19.69-58.63s6.56-44.43,19.69-58.52c13.13-14.08,32.01-21.13,56.64-21.13,12.39,0,22.82,1.48,31.31,4.43,8.48,2.95,15.74,7.3,21.79,13.05l-3.1,32.3h-8.19c-2.66-7.67-4.5-17.48-5.53-29.43-7.52-5.9-16.67-8.85-27.44-8.85-15.64,0-27.84,6.08-36.62,18.25-8.78,12.17-13.16,28.8-13.16,49.89s3.94,38.09,11.84,50.11c7.89,12.02,19.51,18.03,34.85,18.03,6.34,0,13.2-1.11,20.58-3.32,7.37-2.21,14.31-5.68,20.8-10.4l4.87,9.29c-5.9,5.02-13.28,8.93-22.13,11.73-8.85,2.8-18.51,4.2-28.98,4.2-25.22,0-44.4-7-57.53-21.02Z" style="fill:#0e2c5c; stroke-width:0px;"/><path d="m346.43,376.63c-13.13-14.01-19.69-33.55-19.69-58.63s6.56-44.43,19.69-58.52c13.13-14.08,32.01-21.13,56.64-21.13,12.39,0,22.82,1.48,31.31,4.43,8.48,2.95,15.74,7.3,21.79,13.05l-3.1,32.3h-8.19c-2.66-7.67-4.5-17.48-5.53-29.43-7.52-5.9-16.67-8.85-27.44-8.85-15.64,0-27.84,6.08-36.62,18.25-8.78,12.17-13.16,28.8-13.16,49.89s3.94,38.09,11.84,50.11c7.89,12.02,19.51,18.03,34.85,18.03,6.34,0,13.2-1.11,20.58-3.32,7.37-2.21,14.31-5.68,20.8-10.4l4.87,9.29c-5.9,5.02-13.28,8.93-22.13,11.73-8.85,2.8-18.51,4.2-28.98,4.2-25.22,0-44.4-7-57.53-21.02Z" style="fill:#0e2c5c; stroke-width:0px;"/><path d="m320,562.44c-64.76,0-125.64-25.22-171.43-71.01-45.79-45.79-71.01-106.67-71.01-171.43s25.22-125.64,71.01-171.43c45.79-45.79,106.67-71.01,171.43-71.01s125.64,25.22,171.43,71.01c45.79,45.79,71.01,106.67,71.01,171.43s-25.22,125.64-71.01,171.43c-45.79,45.79-106.67,71.01-171.43,71.01Zm0-454.89c-117.14,0-212.44,95.3-212.44,212.44s95.3,212.44,212.44,212.44,212.44-95.3,212.44-212.44-95.3-212.44-212.44-212.44Z" style="fill:#0e2c5c; stroke-width:0px;"/></svg>